<svg width="180" height="180" xmlns="http://www.w3.org/2000/svg"><title>Group 2</title><g id="Page-1" fill="none" fill-rule="evenodd"><g id="UIA-Landing-Page-2---2" transform="translate(-252 -3562)"><g id="Section-6-/-Icons" transform="translate(226 3478)"><g id="Group-16-Copy" transform="translate(26 84)"><g id="Group-2"><path id="Rectangle-4" fill="#FFF" d="M0 0h180v180H0z"/><g id="Bag" transform="translate(15 7)"><path d="M59.799 161.772c-46.536 0-68.926-21.355-56.333-65.876 7.075-25.017 20.138-45.307 39.188-60.873L27.958 3.336C29.591 1.112 32.313 0 36.122 0c3.266 0 6.804 2.78 10.614 8.339C49.457 2.779 53.267 0 58.166 0c4.898 0 8.708 2.78 11.43 8.339C72.86 2.779 76.67 0 81.026 0c2.177 0 4.626 1.112 7.347 3.336L72.861 35.023c19.05 13.898 31.569 34.189 37.556 60.873 8.98 40.026-4.082 65.876-50.618 65.876z" id="Path-21" stroke="#000" stroke-width="6" fill="#FFF" stroke-linecap="round" stroke-linejoin="round"/><rect id="Rectangle-2" stroke="#000" stroke-width="6" fill="#FFF" stroke-linecap="round" stroke-linejoin="round" x="33.594" y="27.518" width="45.884" height="13.342" rx="6.671"/><ellipse id="Oval-4" fill="#8E85C1" cx="56.458" cy="100.291" rx="32.774" ry="33.355"/><g id="Group-3" transform="translate(47.465 79.277)" stroke="#FFF" stroke-width="8" stroke-linecap="round"><path d="M8.772 3.57V0" id="Path-25"/><path d="M8.772 42.839v-3.57" id="Path-25-Copy"/><path d="M17.206 12.801c0-5.559-2.73-8.339-8.193-8.339C.819 4.462 0 8.354 0 12.802c0 4.446 2.458 5.002 9.013 8.755 6.555 3.752 8.193 5.42 8.193 8.756 0 3.335-.458 8.338-8.193 8.338-6.009 0-9.013-2.78-9.013-8.338" id="Path-24" stroke-linejoin="round"/></g></g><g id="Coin-Stack---small-Copy" transform="translate(123.155 73.71)" stroke="#000" stroke-width="6" stroke-linecap="round" stroke-linejoin="round"><path d="M40.891 81.303h.077V9.59c0-5.297-9.171-9.59-20.484-9.59C9.17 0 0 4.293 0 9.59v71.713h.076c.903 4.906 9.695 8.756 20.408 8.756 10.713 0 19.505-3.85 20.407-8.756z" id="Combined-Shape" fill="#8E85C1"/><path d="M0 34.189c1.621 6.115 8.722 9.173 21.303 9.173 12.581 0 19.136-3.058 19.665-9.173" id="Path-23"/><path d="M0 22.515c1.621 6.115 8.722 9.172 21.303 9.172 12.581 0 19.136-3.057 19.665-9.172" id="Path-23-Copy-3"/><path d="M0 10.84c1.621 6.115 8.722 9.173 21.303 9.173 12.581 0 19.136-3.058 19.665-9.173" id="Path-23-Copy-4"/><path d="M0 45.863c1.621 6.115 8.722 9.173 21.303 9.173 12.581 0 19.136-3.058 19.665-9.173" id="Path-23-Copy"/><path d="M0 57.537c1.621 6.116 8.722 9.173 21.303 9.173 12.581 0 19.136-3.057 19.665-9.173" id="Path-23-Copy-2"/><path d="M0 69.212c1.621 6.115 8.722 9.172 21.303 9.172 12.581 0 19.136-3.057 19.665-9.172" id="Path-23-Copy-5"/></g><g id="Coin-Stack---small" transform="translate(85.465 117.072)" stroke="#000" stroke-width="6" stroke-linecap="round" stroke-linejoin="round"><path d="M40.968 45.446V9.59c0-5.297-9.171-9.59-20.484-9.59C9.17 0 0 4.293 0 9.59v35.856c0 5.296 9.171 9.59 20.484 9.59 11.313 0 20.484-4.294 20.484-9.59z" id="Combined-Shape" fill="#FFF"/><path d="M0 10.84c1.621 6.115 8.722 9.173 21.303 9.173 12.581 0 19.136-3.058 19.665-9.173" id="Path-23"/><path d="M0 22.515c1.621 6.115 8.722 9.172 21.303 9.172 12.581 0 19.136-3.057 19.665-9.172" id="Path-23-Copy"/><path d="M0 34.189c1.621 6.115 8.722 9.173 21.303 9.173 12.581 0 19.136-3.058 19.665-9.173" id="Path-23-Copy-2"/></g></g></g></g></g></g></svg>