<svg width="180" height="180" xmlns="http://www.w3.org/2000/svg"><title>Group 21</title><g id="Page-1" fill="none" fill-rule="evenodd"><g id="UIA-Landing-Page-2---2" transform="translate(-1029 -3562)"><g id="Section-6-/-Icons" transform="translate(226 3478)"><g id="Group-16-Copy" transform="translate(26 84)"><g id="Group-21" transform="translate(777)"><path id="Rectangle-4" fill="#FFF" d="M0 0h180v180H0z"/><g id="Group-2-Copy-6" transform="translate(15 11)"><path id="Rectangle" fill="#8E85C1" d="M0 0h106.848v124.897H0z"/><path id="Rectangle-Copy" fill="#FFF" d="M18.049 17.327h103.96V133.56H18.049z"/><path id="Path-18" stroke="#000" stroke-width="6" fill="#FFF" stroke-linecap="round" stroke-linejoin="round" d="M113.333 132.5l-96.006.34V17.328h103.96v76.006"/><g id="Group-17" transform="translate(100 66.667)"><path id="Path-19" stroke="#000" stroke-width="6" fill="#FFF" stroke-linecap="round" stroke-linejoin="round" d="M10.833 30.833v60L25 79.22l14.167 11.613v-60z"/><circle id="Combined-Shape" stroke="#000" stroke-width="6" fill="#FFF" stroke-linecap="round" stroke-linejoin="round" cx="25" cy="25" r="25"/><circle id="Combined-Shape-Copy" fill="#8E85C1" cx="25" cy="25" r="16.667"/></g><path d="M32.5 35H105" id="Path-20" stroke="#000" stroke-width="6" stroke-linecap="round" stroke-linejoin="round"/><path d="M32.5 53.333H105" id="Path-20-Copy" stroke="#000" stroke-width="6" stroke-linecap="round" stroke-linejoin="round"/><path d="M32.5 72.5h56.667" id="Path-20-Copy-2" stroke="#000" stroke-width="6" stroke-linecap="round" stroke-linejoin="round"/><path d="M32.5 91.667h50" id="Path-20-Copy-3" stroke="#000" stroke-width="6" stroke-linecap="round" stroke-linejoin="round"/><path d="M32.5 111.667h50" id="Path-20-Copy-5" stroke="#000" stroke-width="6" stroke-linecap="round" stroke-linejoin="round"/></g></g></g></g></g></g></svg>