<?xml version="1.0" encoding="utf-8"?>
<!-- Generator: Adobe Illustrator 21.0.2, SVG Export Plug-In . SVG Version: 6.00 Build 0)  -->
<svg version="1.1" id="Layer_1" xmlns="http://www.w3.org/2000/svg" xmlns:xlink="http://www.w3.org/1999/xlink" x="0px" y="0px"
	 viewBox="0 0 1494 222" style="enable-background:new 0 0 1494 222;" xml:space="preserve">
<style type="text/css">
	.st0{fill:#70B3B8;}
	.st1{fill:#FFFFFF;}
	.st2{enable-background:new    ;}
</style>
<title>Group 2</title>
<desc>Created with Sketch.</desc>
<g id="Page-1">
	<g id="Logomark-Black-Horizontal" transform="translate(-265.000000, -401.000000)">
		<g id="Group-2" transform="translate(265.000000, 401.000000)">
			<g id="Group-3">
				<g id="Group" transform="translate(0.022731, 0.108187)">
					<polygon id="Shape" class="st0" points="174.6,80.4 174.6,80.4 64,111.4 0.4,221.6 					"/>
					<polygon id="Shape_1_" class="st1" points="164.3,62.5 128.2,0.1 78.3,86.7 					"/>
					<polygon id="Shape_2_" class="st0" points="128.1,143.9 256,221.5 184.7,97.9 					"/>
				</g>
				<g class="st2">
					<path class="st1" d="M409.2,161.8c0,1.1-0.5,2-1.4,2.8s-2,1.1-3.1,1.1c-0.8,0-1.6-0.3-2.3-0.8s-1.3-1.2-1.7-2.1l-11.4-26.1
						h-58.2l-11.5,26.1c-0.9,1.9-2.3,2.8-4.2,2.8c-1.2,0-2.2-0.4-3.1-1.1c-0.9-0.8-1.3-1.7-1.3-2.9c0-0.7,0.1-1.2,0.3-1.7l43.8-98.4
						c0.9-2.2,2.6-3.3,5-3.3c1.1,0,2.1,0.3,3.1,0.9c0.9,0.6,1.6,1.4,2,2.4l43.6,98.4C409.1,160.7,409.2,161.2,409.2,161.8z
						 M334.5,128.7h51.1l-25.5-58L334.5,128.7z"/>
					<path class="st1" d="M436.9,164.5c-0.9-0.8-1.3-2-1.3-3.5v-97c0-1.3,0.5-2.4,1.4-3.3c0.9-0.9,2.1-1.3,3.5-1.3h35.1
						c11,0,19.5,2.7,25.6,8c6,5.3,9.1,12.8,9.1,22.5c0,9.8-3.1,17.4-9.1,22.7c-6.1,5.4-14.6,8-25.5,8h-30.8V161
						c0,1.5-0.4,2.7-1.3,3.5c-0.9,0.8-2,1.3-3.4,1.3C438.9,165.8,437.7,165.3,436.9,164.5z M475.1,112.5c17.3,0,25.9-7.6,25.9-22.8
						c0-15-8.7-22.5-25.9-22.5h-30.1v45.3H475.1z"/>
					<path class="st1" d="M540.5,164.4c-0.9-0.9-1.3-2-1.3-3.5V63.3c0-1.4,0.4-2.5,1.3-3.5c0.8-0.9,2-1.3,3.4-1.3
						c1.4,0,2.5,0.5,3.4,1.3c0.8,0.9,1.3,2.1,1.3,3.5V161c0,1.4-0.4,2.5-1.3,3.5c-0.9,0.9-2,1.3-3.4,1.3
						C542.5,165.8,541.4,165.3,540.5,164.4z"/>
					<path class="st1" d="M602.2,159.7c-7.3-4.3-12.8-10.6-16.6-18.8c-3.9-8.1-5.8-17.8-5.8-28.9c0-11.1,1.9-20.7,5.8-28.8
						c3.8-8.1,9.4-14.3,16.6-18.7c7.2-4.4,15.8-6.5,25.6-6.5c6.7,0,13.1,1.1,19.1,3.4c6,2.2,11.2,5.5,15.4,9.7
						c1.4,1.3,2.1,2.8,2.1,4.4c0,1.1-0.3,2.1-1,2.8c-0.7,0.8-1.4,1.2-2.2,1.2c-1,0-2.2-0.5-3.4-1.5c-5.4-4.4-10.3-7.4-14.7-9.2
						c-4.4-1.7-9.6-2.5-15.4-2.5c-12.1,0-21.5,4-28.1,12c-6.7,8-10,19.3-10,33.8c0,14.6,3.3,25.9,10,33.9c6.6,8,16,12,28.1,12
						c5.9,0,11-0.8,15.4-2.5c4.4-1.7,9.3-4.7,14.7-9.2c1.5-1,2.6-1.5,3.4-1.5c0.8,0,1.5,0.4,2.2,1.2c0.6,0.8,1,1.8,1,2.8
						c0,1.6-0.7,3.1-2.1,4.4c-4.2,4.2-9.3,7.4-15.4,9.7c-6.1,2.2-12.4,3.4-19.1,3.4C618,166.2,609.4,164,602.2,159.7z"/>
					<path class="st1" d="M780,161.8c0,1.1-0.5,2-1.4,2.8c-0.9,0.8-1.9,1.1-3.1,1.1c-0.8,0-1.6-0.3-2.3-0.8s-1.3-1.2-1.7-2.1
						l-11.4-26.1h-58.2l-11.5,26.1c-0.9,1.9-2.3,2.8-4.2,2.8c-1.2,0-2.2-0.4-3.1-1.1c-0.9-0.8-1.3-1.7-1.3-2.9
						c0-0.7,0.1-1.2,0.3-1.7l43.8-98.4c0.9-2.2,2.6-3.3,5-3.3c1.1,0,2.1,0.3,3.1,0.9c0.9,0.6,1.6,1.4,2,2.4l43.6,98.4
						C779.9,160.7,780,161.2,780,161.8z M705.3,128.7h51.2l-25.5-58L705.3,128.7z"/>
					<path class="st1" d="M807.8,163.8c-1-0.8-1.4-1.8-1.4-3V63.3c0-1.4,0.4-2.5,1.3-3.5c0.8-0.9,2-1.3,3.4-1.3
						c1.5,0,2.6,0.4,3.4,1.3c0.8,0.9,1.2,2,1.2,3.5v93.6H867c1.3,0,2.3,0.4,3.1,1c0.8,0.7,1.1,1.7,1.1,3c0,1.3-0.4,2.3-1.1,3
						c-0.8,0.7-1.8,1-3.1,1h-55.8C809.9,165,808.8,164.6,807.8,163.8z"/>
					<path class="st1" d="M941.5,163.7c-1-0.9-1.4-2-1.4-3.3V63.9c0-1.3,0.5-2.4,1.4-3.3c0.9-0.9,2.1-1.3,3.5-1.3h29.1
						c16.7,0,29.6,4.6,38.8,13.7c9.2,9.1,13.7,22.2,13.7,39.1c0,17-4.6,30.1-13.7,39.2c-9.1,9.1-22.1,13.7-38.8,13.7H945
						C943.6,165,942.4,164.5,941.5,163.7z M973.7,156.9c28.8,0,43.2-14.9,43.2-44.9c0-29.8-14.4-44.7-43.2-44.7h-24.3v89.6H973.7z"
						/>
					<path class="st1" d="M1059.1,163.7c-1-0.9-1.4-2-1.4-3.3V63.9c0-1.3,0.5-2.4,1.4-3.3c0.9-0.9,2.1-1.3,3.5-1.3h57
						c1.3,0,2.3,0.4,3.1,1c0.8,0.7,1.1,1.7,1.1,3c0,1.2-0.4,2.2-1.1,2.9c-0.8,0.7-1.8,1-3.1,1h-52.8v40h49.8c1.3,0,2.3,0.4,3.1,1
						c0.8,0.7,1.1,1.7,1.1,3c0,1.3-0.4,2.3-1.1,3c-0.8,0.7-1.8,1-3.1,1h-49.8V157h52.8c1.3,0,2.3,0.3,3.1,1c0.8,0.7,1.1,1.6,1.1,2.9
						c0,1.3-0.4,2.3-1.1,3c-0.8,0.7-1.8,1-3.1,1h-57C1061.2,165,1060,164.5,1059.1,163.7z"/>
					<path class="st1" d="M1162.1,162.7c-6.8-2.3-12.2-5.5-16.1-9.5c-1.3-1.1-1.9-2.6-1.9-4.4c0-1.1,0.3-2,1-2.8
						c0.6-0.8,1.4-1.2,2.2-1.2c1,0,2.1,0.5,3.4,1.5c9.4,7.8,20.3,11.7,32.8,11.7c9.1,0,16.1-1.8,21.1-5.5c4.9-3.6,7.4-8.8,7.4-15.5
						c0-3.9-1.2-7-3.6-9.5s-5.5-4.3-9.2-5.6c-3.7-1.3-8.7-2.7-14.8-4.1c-8.2-1.8-14.8-3.6-19.9-5.5c-5.1-1.9-9.3-4.8-12.8-8.6
						c-3.5-3.8-5.2-9-5.2-15.5c0-5.9,1.6-11.1,4.7-15.7c3.2-4.5,7.6-8.1,13.3-10.6c5.7-2.5,12.2-3.8,19.6-3.8
						c6.9,0,13.4,1.1,19.5,3.4s11.2,5.5,15.2,9.7c1.3,1.3,2,2.8,2,4.4c0,1.1-0.3,2.1-1,2.8c-0.7,0.8-1.4,1.2-2.2,1.2
						c-1,0-2.2-0.5-3.5-1.5c-5.4-4.4-10.3-7.4-14.6-9.2c-4.3-1.7-9.5-2.5-15.4-2.5c-8.9,0-15.8,1.9-20.8,5.7
						c-5,3.8-7.5,9.1-7.5,15.9c0,4.1,1.1,7.4,3.3,10c2.2,2.5,5.1,4.6,8.6,6.1c3.5,1.5,8.1,3,13.7,4.3l3.9,0.9
						c8.1,2,14.5,3.9,19.2,5.5c4.7,1.7,8.7,4.3,11.9,7.9c3.2,3.6,4.9,8.3,4.9,14.3c0,5.7-1.6,10.8-4.7,15.2
						c-3.2,4.5-7.6,7.9-13.4,10.4c-5.8,2.5-12.3,3.7-19.7,3.7S1169,165,1162.1,162.7z"/>
					<path class="st1" d="M1251.2,164.4c-0.8-0.9-1.3-2-1.3-3.5V63.3c0-1.4,0.4-2.5,1.3-3.5c0.8-0.9,2-1.3,3.4-1.3s2.5,0.5,3.4,1.3
						c0.8,0.9,1.3,2.1,1.3,3.5V161c0,1.4-0.4,2.5-1.3,3.5c-0.8,0.9-2,1.3-3.4,1.3S1252.1,165.3,1251.2,164.4z"/>
					<path class="st1" d="M1375.1,112c0.8,0.8,1.1,1.7,1.1,2.9v39.8c0,2.6-1.2,4.4-3.4,5.4c-4.1,1.9-9.1,3.4-14.9,4.5
						c-5.8,1.1-11.8,1.7-17.8,1.7c-10.3,0-19.2-2.1-26.6-6.4c-7.5-4.2-13.2-10.4-17.1-18.6c-4-8.1-5.9-17.9-5.9-29.2
						c0-11.1,2-20.7,5.9-28.8c3.9-8.1,9.5-14.3,16.8-18.7c7.3-4.4,15.9-6.5,26-6.5c7,0,13.5,1.1,19.6,3.4s11.1,5.5,15,9.7
						c1.3,1.3,2,2.8,2,4.4c0,1.1-0.3,2.1-0.9,2.8c-0.6,0.8-1.3,1.2-2.2,1.2c-0.8,0-1.9-0.5-3.3-1.5c-5.3-4.4-10.2-7.4-14.7-9.2
						c-4.5-1.7-9.7-2.5-15.4-2.5c-12.4,0-22,4-28.7,11.9c-6.8,8-10.1,19.2-10.1,33.8c0,14.9,3.4,26.3,10.2,34.2
						c6.8,7.9,16.7,11.8,29.7,11.8c5,0,9.9-0.4,14.8-1.3c4.8-0.8,9.2-2.1,13-3.7v-34.5h-24.3c-1.4,0-2.5-0.3-3.2-1.1
						c-0.8-0.7-1.1-1.6-1.1-2.8s0.4-2.1,1.1-2.8c0.8-0.7,1.8-1.1,3.2-1.1h28.6C1373.4,110.8,1374.4,111.2,1375.1,112z"/>
				</g>
				<g class="st2">
					<path class="st1" d="M1492.7,59.8c0.8,0.9,1.1,2,1.1,3.5V161c0,1.4-0.4,2.5-1.2,3.5c-0.8,0.9-1.9,1.3-3.3,1.3
						c-1.5,0-2.9-0.8-4-2.2l-65.7-88.7V161c0,1.4-0.4,2.5-1.2,3.5c-0.8,0.9-1.9,1.3-3.2,1.3c-1.5,0-2.6-0.4-3.3-1.3
						c-0.7-0.8-1.1-2-1.1-3.5V63.3c0-1.4,0.4-2.5,1.3-3.5c0.8-0.9,2-1.3,3.5-1.3c1.6,0,2.9,0.8,3.9,2.2l65.5,88.5v-86
						c0-1.4,0.4-2.5,1.2-3.5c0.8-0.9,1.8-1.3,3.1-1.3C1490.9,58.5,1492,58.9,1492.7,59.8z"/>
				</g>
			</g>
		</g>
	</g>
</g>
</svg>
