<?xml version="1.0" encoding="UTF-8" standalone="no"?>
<svg width="180px" height="180px" viewBox="0 0 180 180" version="1.1" xmlns="http://www.w3.org/2000/svg" xmlns:xlink="http://www.w3.org/1999/xlink">
    <!-- Generator: Sketch 45.2 (43514) - http://www.bohemiancoding.com/sketch -->
    <title>Group 24</title>
    <desc>Created with Sketch.</desc>
    <defs></defs>
    <g id="Page-1" stroke="none" stroke-width="1" fill="none" fill-rule="evenodd">
        <g id="UIA-Landing-Page-2---2" transform="translate(-1018.000000, -3831.000000)" fill="#FFFFFF">
            <g id="Section-6-/-Icons" transform="translate(226.000000, 3478.000000)">
                <g id="Group-16" transform="translate(15.000000, 349.000000)">
                    <g id="Group-24" transform="translate(777.000000, 4.000000)">
                        <rect id="Rectangle-4" x="0" y="0" width="180" height="180"></rect>
                        <g id="Group-15" transform="translate(5.000000, 37.000000)" stroke-linecap="round" stroke-linejoin="round">
                            <path d="M32.1517725,34.9314176 C22.3012311,34.9314176 14.3157895,27.1117534 14.3157895,17.4657088 C14.3157895,7.81966418 22.3012311,0 32.1517725,0 C42.0023139,0 49.9877555,7.81966418 49.9877555,17.4657088 C49.9877555,27.1117534 42.0023139,34.9314176 32.1517725,34.9314176 Z M0,74.0266393 C0,74.0266393 6.85063263,35.2059166 32.2536418,35.2059166 C57.6566509,35.2059166 64.4210526,74.0266393 64.4210526,74.0266393 L0,74.0266393 Z" id="Combined-Shape" stroke="#000000" stroke-width="6"></path>
                            <path d="M137.73072,34.9314176 C127.880178,34.9314176 119.894737,27.1117534 119.894737,17.4657088 C119.894737,7.81966418 127.880178,0 137.73072,0 C147.581261,0 155.566703,7.81966418 155.566703,17.4657088 C155.566703,27.1117534 147.581261,34.9314176 137.73072,34.9314176 Z M105.578947,74.0266393 C105.578947,74.0266393 112.42958,35.2059166 137.832589,35.2059166 C163.235598,35.2059166 170,74.0266393 170,74.0266393 L105.578947,74.0266393 Z" id="Combined-Shape-Copy-3" stroke="#000000" stroke-width="6"></path>
                            <path d="M85.8212946,57.4959587 C73.5081178,57.4959587 63.5263158,47.7443775 63.5263158,35.7151925 C63.5263158,23.6860074 73.5081178,13.9344262 85.8212946,13.9344262 C98.1344713,13.9344262 108.116273,23.6860074 108.116273,35.7151925 C108.116273,47.7443775 98.1344713,57.4959587 85.8212946,57.4959587 Z M45.6315789,106.25 C45.6315789,106.25 54.1948697,57.8382752 85.9486312,57.8382752 C117.702393,57.8382752 126.157895,106.25 126.157895,106.25 L45.6315789,106.25 Z" id="Combined-Shape-Copy-2" stroke="#8E85C1" stroke-width="8"></path>
                        </g>
                    </g>
                </g>
            </g>
        </g>
    </g>
</svg>