<?xml version="1.0" encoding="UTF-8" standalone="no"?>
<svg width="180px" height="180px" viewBox="0 0 180 180" version="1.1" xmlns="http://www.w3.org/2000/svg" xmlns:xlink="http://www.w3.org/1999/xlink">
    <!-- Generator: Sketch 45.2 (43514) - http://www.bohemiancoding.com/sketch -->
    <title>Group 2</title>
    <desc>Created with Sketch.</desc>
    <defs></defs>
    <g id="Page-1" stroke="none" stroke-width="1" fill="none" fill-rule="evenodd">
        <g id="UIA-Landing-Page-2---2" transform="translate(-252.000000, -3562.000000)">
            <g id="Section-6-/-Icons" transform="translate(226.000000, 3478.000000)">
                <g id="Group-16-Copy" transform="translate(26.000000, 84.000000)">
                    <g id="Group-2">
                        <rect id="Rectangle-4" fill="#FFFFFF" x="0" y="0" width="180" height="180"></rect>
                        <g id="Bag" transform="translate(15.000000, 7.000000)">
                            <path d="M59.7986721,161.772021 C13.2627062,161.772021 -9.12680832,140.417088 3.46566079,95.8957858 C10.5413047,70.8794939 23.604032,50.5885015 42.6538426,35.0228087 L27.9582744,3.33550559 C29.5911153,1.1118352 32.3125168,4.56009595e-13 36.122479,4.54747351e-13 C39.3881608,4.54747351e-13 42.9259827,2.77958799 46.7359449,8.33876398 C49.4573464,2.77958799 53.2673085,4.56141781e-13 58.1658312,4.54747351e-13 C63.0643539,4.54747351e-13 66.8743161,2.77958799 69.5957176,8.33876398 C72.8613994,2.77958799 76.6713615,4.55723476e-13 81.0256039,4.54747351e-13 C83.2027251,4.54747351e-13 85.6519865,1.1118352 88.373388,3.33550559 L72.8613994,35.0228087 C91.91121,48.9207487 104.429657,69.2117411 110.41674,95.8957858 C119.397365,135.921853 106.334638,161.772021 59.7986721,161.772021 Z" id="Path-21" stroke="#000000" stroke-width="6" fill="#FFFFFF" stroke-linecap="round" stroke-linejoin="round"></path>
                            <rect id="Rectangle-2" stroke="#000000" stroke-width="6" fill="#FFFFFF" stroke-linecap="round" stroke-linejoin="round" x="33.5935994" y="27.5179211" width="45.8839406" height="13.3420224" rx="6.67101119"></rect>
                            <ellipse id="Oval-4" fill="#8E85C1" cx="56.4584538" cy="100.29054" rx="32.7742433" ry="33.3550559"></ellipse>
                            <g id="Group-3" transform="translate(47.464816, 79.276855)" stroke="#FFFFFF" stroke-width="8" stroke-linecap="round">
                                <path d="M8.77192982,3.56989247 L8.77192982,-1.56763491e-13" id="Path-25"></path>
                                <path d="M8.77192982,42.8387097 L8.77192982,39.2688172" id="Path-25-Copy"></path>
                                <path d="M17.2064777,12.8011296 C17.2064777,7.24195359 14.4752908,4.46236559 9.01291691,4.46236559 C0.819356083,4.46236559 2.27510707e-13,8.35446739 2.27373675e-13,12.8011296 C2.27373675e-13,17.2477918 2.45806825,17.804388 9.01291691,21.5568318 C15.5677656,25.3092756 17.2064777,26.9770283 17.2064777,30.3125339 C17.2064777,33.6480395 16.7482298,38.6512979 9.01291691,38.6512979 C3.00430564,38.6512979 1.21945758e-12,35.8717099 2.27373675e-13,30.3125339" id="Path-24" stroke-linejoin="round"></path>
                            </g>
                        </g>
                        <g id="Coin-Stack---small-Copy" transform="translate(123.155003, 73.710112)" stroke="#000000" stroke-width="6" stroke-linecap="round" stroke-linejoin="round">
                            <path d="M40.8914337,81.3029488 L40.9678041,81.3029488 L40.9678041,9.58957858 C40.9678041,4.29340057 31.7968488,0 20.4839021,0 C9.17095534,0 0,4.29340057 0,9.58957858 L0,81.3029488 L0.0763704173,81.3029488 C0.97900362,86.2086698 9.77106881,90.058651 20.4839021,90.058651 C31.1967353,90.058651 39.9888005,86.2086698 40.8914337,81.3029488 Z" id="Combined-Shape" fill="#8E85C1"></path>
                            <path d="M0,34.1889323 C1.62127546,40.3040259 8.72236151,43.3615727 21.3032581,43.3615727 C33.8841548,43.3615727 40.4390034,40.3040259 40.9678041,34.1889323" id="Path-23"></path>
                            <path d="M0,22.5146628 C1.62127546,28.6297563 8.72236151,31.6873031 21.3032581,31.6873031 C33.8841548,31.6873031 40.4390034,28.6297563 40.9678041,22.5146628" id="Path-23-Copy-3"></path>
                            <path d="M0,10.8403932 C1.62127546,16.9554868 8.72236151,20.0130336 21.3032581,20.0130336 C33.8841548,20.0130336 40.4390034,16.9554868 40.9678041,10.8403932" id="Path-23-Copy-4"></path>
                            <path d="M0,45.8632019 C1.62127546,51.9782955 8.72236151,55.0358423 21.3032581,55.0358423 C33.8841548,55.0358423 40.4390034,51.9782955 40.9678041,45.8632019" id="Path-23-Copy"></path>
                            <path d="M0,57.5374715 C1.62127546,63.6525651 8.72236151,66.7101119 21.3032581,66.7101119 C33.8841548,66.7101119 40.4390034,63.6525651 40.9678041,57.5374715" id="Path-23-Copy-2"></path>
                            <path d="M0,69.2117411 C1.62127546,75.3268347 8.72236151,78.3843814 21.3032581,78.3843814 C33.8841548,78.3843814 40.4390034,75.3268347 40.9678041,69.2117411" id="Path-23-Copy-5"></path>
                        </g>
                        <g id="Coin-Stack---small" transform="translate(85.464623, 117.071685)" stroke="#000000" stroke-width="6" stroke-linecap="round" stroke-linejoin="round">
                            <path d="M40.9678041,45.4462632 L40.9678041,9.58957858 C40.9678041,4.29340057 31.7968488,0 20.4839021,0 C9.17095534,0 0,4.29340057 0,9.58957858 L0,45.4462637 C0,50.7424417 9.17095534,55.0358423 20.4839021,55.0358423 C31.7968488,55.0358423 40.9678041,50.7424417 40.9678041,45.4462637 Z" id="Combined-Shape" fill="#FFFFFF"></path>
                            <path d="M0,10.8403932 C1.62127546,16.9554868 8.72236151,20.0130336 21.3032581,20.0130336 C33.8841548,20.0130336 40.4390034,16.9554868 40.9678041,10.8403932" id="Path-23"></path>
                            <path d="M0,22.5146628 C1.62127546,28.6297563 8.72236151,31.6873031 21.3032581,31.6873031 C33.8841548,31.6873031 40.4390034,28.6297563 40.9678041,22.5146628" id="Path-23-Copy"></path>
                            <path d="M0,34.1889323 C1.62127546,40.3040259 8.72236151,43.3615727 21.3032581,43.3615727 C33.8841548,43.3615727 40.4390034,40.3040259 40.9678041,34.1889323" id="Path-23-Copy-2"></path>
                        </g>
                    </g>
                </g>
            </g>
        </g>
    </g>
</svg>