<svg id="Layer_1" xmlns="http://www.w3.org/2000/svg" viewBox="0 0 1494 222"><style>.st0{fill:#fff}.st1{fill:#fff}.st2{enable-background:new}</style><title>Group 2</title><g id="Page-1"><g id="Logomark-Black-Horizontal" transform="translate(-265 -401)"><g id="Group-2" transform="translate(265 401)"><g id="Group-3"><g id="Group" transform="translate(.023 .108)"><path id="Shape" class="st0" d="M174.6 80.4L64 111.4.4 221.6z"/><path id="Shape_1_" class="st1" d="M164.3 62.5L128.2.1 78.3 86.7z"/><path id="Shape_2_" class="st0" d="M128.1 143.9L256 221.5 184.7 97.9z"/></g><g class="st2"><path class="st1" d="M409.2 161.8c0 1.1-.5 2-1.4 2.8s-2 1.1-3.1 1.1c-.8 0-1.6-.3-2.3-.8s-1.3-1.2-1.7-2.1l-11.4-26.1h-58.2l-11.5 26.1c-.9 1.9-2.3 2.8-4.2 2.8-1.2 0-2.2-.4-3.1-1.1-.9-.8-1.3-1.7-1.3-2.9 0-.7.1-1.2.3-1.7l43.8-98.4c.9-2.2 2.6-3.3 5-3.3 1.1 0 2.1.3 3.1.9.9.6 1.6 1.4 2 2.4l43.6 98.4c.3.8.4 1.3.4 1.9zm-74.7-33.1h51.1l-25.5-58-25.6 58zm102.4 35.8c-.9-.8-1.3-2-1.3-3.5V64c0-1.3.5-2.4 1.4-3.3.9-.9 2.1-1.3 3.5-1.3h35.1c11 0 19.5 2.7 25.6 8 6 5.3 9.1 12.8 9.1 22.5 0 9.8-3.1 17.4-9.1 22.7-6.1 5.4-14.6 8-25.5 8h-30.8V161c0 1.5-.4 2.7-1.3 3.5-.9.8-2 1.3-3.4 1.3-1.3 0-2.5-.5-3.3-1.3zm38.2-52c17.3 0 25.9-7.6 25.9-22.8 0-15-8.7-22.5-25.9-22.5H445v45.3h30.1zm65.4 51.9c-.9-.9-1.3-2-1.3-3.5V63.3c0-1.4.4-2.5 1.3-3.5.8-.9 2-1.3 3.4-1.3s2.5.5 3.4 1.3c.8.9 1.3 2.1 1.3 3.5V161c0 1.4-.4 2.5-1.3 3.5-.9.9-2 1.3-3.4 1.3s-2.5-.5-3.4-1.4zm61.7-4.7c-7.3-4.3-12.8-10.6-16.6-18.8-3.9-8.1-5.8-17.8-5.8-28.9 0-11.1 1.9-20.7 5.8-28.8 3.8-8.1 9.4-14.3 16.6-18.7 7.2-4.4 15.8-6.5 25.6-6.5 6.7 0 13.1 1.1 19.1 3.4 6 2.2 11.2 5.5 15.4 9.7 1.4 1.3 2.1 2.8 2.1 4.4 0 1.1-.3 2.1-1 2.8-.7.8-1.4 1.2-2.2 1.2-1 0-2.2-.5-3.4-1.5-5.4-4.4-10.3-7.4-14.7-9.2-4.4-1.7-9.6-2.5-15.4-2.5-12.1 0-21.5 4-28.1 12-6.7 8-10 19.3-10 33.8 0 14.6 3.3 25.9 10 33.9 6.6 8 16 12 28.1 12 5.9 0 11-.8 15.4-2.5s9.3-4.7 14.7-9.2c1.5-1 2.6-1.5 3.4-1.5.8 0 1.5.4 2.2 1.2.6.8 1 1.8 1 2.8 0 1.6-.7 3.1-2.1 4.4-4.2 4.2-9.3 7.4-15.4 9.7-6.1 2.2-12.4 3.4-19.1 3.4-9.8-.1-18.4-2.3-25.6-6.6zm177.8 2.1c0 1.1-.5 2-1.4 2.8-.9.8-1.9 1.1-3.1 1.1-.8 0-1.6-.3-2.3-.8s-1.3-1.2-1.7-2.1l-11.4-26.1h-58.2l-11.5 26.1c-.9 1.9-2.3 2.8-4.2 2.8-1.2 0-2.2-.4-3.1-1.1-.9-.8-1.3-1.7-1.3-2.9 0-.7.1-1.2.3-1.7l43.8-98.4c.9-2.2 2.6-3.3 5-3.3 1.1 0 2.1.3 3.1.9.9.6 1.6 1.4 2 2.4l43.6 98.4c.3.8.4 1.3.4 1.9zm-74.7-33.1h51.2l-25.5-58-25.7 58zm102.5 35.1c-1-.8-1.4-1.8-1.4-3V63.3c0-1.4.4-2.5 1.3-3.5.8-.9 2-1.3 3.4-1.3 1.5 0 2.6.4 3.4 1.3.8.9 1.2 2 1.2 3.5v93.6H867c1.3 0 2.3.4 3.1 1 .8.7 1.1 1.7 1.1 3s-.4 2.3-1.1 3c-.8.7-1.8 1-3.1 1h-55.8c-1.3.1-2.4-.3-3.4-1.1zm133.7-.1c-1-.9-1.4-2-1.4-3.3V63.9c0-1.3.5-2.4 1.4-3.3.9-.9 2.1-1.3 3.5-1.3h29.1c16.7 0 29.6 4.6 38.8 13.7 9.2 9.1 13.7 22.2 13.7 39.1 0 17-4.6 30.1-13.7 39.2-9.1 9.1-22.1 13.7-38.8 13.7H945c-1.4 0-2.6-.5-3.5-1.3zm32.2-6.8c28.8 0 43.2-14.9 43.2-44.9 0-29.8-14.4-44.7-43.2-44.7h-24.3v89.6h24.3zm85.4 6.8c-1-.9-1.4-2-1.4-3.3V63.9c0-1.3.5-2.4 1.4-3.3.9-.9 2.1-1.3 3.5-1.3h57c1.3 0 2.3.4 3.1 1 .8.7 1.1 1.7 1.1 3 0 1.2-.4 2.2-1.1 2.9-.8.7-1.8 1-3.1 1h-52.8v40h49.8c1.3 0 2.3.4 3.1 1 .8.7 1.1 1.7 1.1 3s-.4 2.3-1.1 3c-.8.7-1.8 1-3.1 1h-49.8V157h52.8c1.3 0 2.3.3 3.1 1 .8.7 1.1 1.6 1.1 2.9 0 1.3-.4 2.3-1.1 3-.8.7-1.8 1-3.1 1h-57c-1.4.1-2.6-.4-3.5-1.2zm103-1c-6.8-2.3-12.2-5.5-16.1-9.5-1.3-1.1-1.9-2.6-1.9-4.4 0-1.1.3-2 1-2.8.6-.8 1.4-1.2 2.2-1.2 1 0 2.1.5 3.4 1.5 9.4 7.8 20.3 11.7 32.8 11.7 9.1 0 16.1-1.8 21.1-5.5 4.9-3.6 7.4-8.8 7.4-15.5 0-3.9-1.2-7-3.6-9.5s-5.5-4.3-9.2-5.6c-3.7-1.3-8.7-2.7-14.8-4.1-8.2-1.8-14.8-3.6-19.9-5.5-5.1-1.9-9.3-4.8-12.8-8.6s-5.2-9-5.2-15.5c0-5.9 1.6-11.1 4.7-15.7 3.2-4.5 7.6-8.1 13.3-10.6 5.7-2.5 12.2-3.8 19.6-3.8 6.9 0 13.4 1.1 19.5 3.4s11.2 5.5 15.2 9.7c1.3 1.3 2 2.8 2 4.4 0 1.1-.3 2.1-1 2.8-.7.8-1.4 1.2-2.2 1.2-1 0-2.2-.5-3.5-1.5-5.4-4.4-10.3-7.4-14.6-9.2-4.3-1.7-9.5-2.5-15.4-2.5-8.9 0-15.8 1.9-20.8 5.7-5 3.8-7.5 9.1-7.5 15.9 0 4.1 1.1 7.4 3.3 10 2.2 2.5 5.1 4.6 8.6 6.1s8.1 3 13.7 4.3l3.9.9c8.1 2 14.5 3.9 19.2 5.5 4.7 1.7 8.7 4.3 11.9 7.9 3.2 3.6 4.9 8.3 4.9 14.3 0 5.7-1.6 10.8-4.7 15.2-3.2 4.5-7.6 7.9-13.4 10.4-5.8 2.5-12.3 3.7-19.7 3.7s-14.5-1.3-21.4-3.6zm89.1 1.7c-.8-.9-1.3-2-1.3-3.5V63.3c0-1.4.4-2.5 1.3-3.5.8-.9 2-1.3 3.4-1.3s2.5.5 3.4 1.3c.8.9 1.3 2.1 1.3 3.5V161c0 1.4-.4 2.5-1.3 3.5-.8.9-2 1.3-3.4 1.3s-2.5-.5-3.4-1.4zm123.9-52.4c.8.8 1.1 1.7 1.1 2.9v39.8c0 2.6-1.2 4.4-3.4 5.4-4.1 1.9-9.1 3.4-14.9 4.5-5.8 1.1-11.8 1.7-17.8 1.7-10.3 0-19.2-2.1-26.6-6.4-7.5-4.2-13.2-10.4-17.1-18.6-4-8.1-5.9-17.9-5.9-29.2 0-11.1 2-20.7 5.9-28.8 3.9-8.1 9.5-14.3 16.8-18.7 7.3-4.4 15.9-6.5 26-6.5 7 0 13.5 1.1 19.6 3.4s11.1 5.5 15 9.7c1.3 1.3 2 2.8 2 4.4 0 1.1-.3 2.1-.9 2.8-.6.8-1.3 1.2-2.2 1.2-.8 0-1.9-.5-3.3-1.5-5.3-4.4-10.2-7.4-14.7-9.2-4.5-1.7-9.7-2.5-15.4-2.5-12.4 0-22 4-28.7 11.9-6.8 8-10.1 19.2-10.1 33.8 0 14.9 3.4 26.3 10.2 34.2 6.8 7.9 16.7 11.8 29.7 11.8 5 0 9.9-.4 14.8-1.3 4.8-.8 9.2-2.1 13-3.7v-34.5h-24.3c-1.4 0-2.5-.3-3.2-1.1-.8-.7-1.1-1.6-1.1-2.8s.4-2.1 1.1-2.8c.8-.7 1.8-1.1 3.2-1.1h28.6c.9 0 1.9.4 2.6 1.2z"/></g><g class="st2"><path class="st1" d="M1492.7 59.8c.8.9 1.1 2 1.1 3.5V161c0 1.4-.4 2.5-1.2 3.5-.8.9-1.9 1.3-3.3 1.3-1.5 0-2.9-.8-4-2.2l-65.7-88.7V161c0 1.4-.4 2.5-1.2 3.5-.8.9-1.9 1.3-3.2 1.3-1.5 0-2.6-.4-3.3-1.3-.7-.8-1.1-2-1.1-3.5V63.3c0-1.4.4-2.5 1.3-3.5.8-.9 2-1.3 3.5-1.3 1.6 0 2.9.8 3.9 2.2l65.5 88.5v-86c0-1.4.4-2.5 1.2-3.5.8-.9 1.8-1.3 3.1-1.3 1.6.1 2.7.5 3.4 1.4z"/></g></g></g></g></g></svg>