<?xml version="1.0" encoding="UTF-8" standalone="no"?>
<svg width="180px" height="180px" viewBox="0 0 180 180" version="1.1" xmlns="http://www.w3.org/2000/svg" xmlns:xlink="http://www.w3.org/1999/xlink">
    <!-- Generator: Sketch 45.2 (43514) - http://www.bohemiancoding.com/sketch -->
    <title>Group 23</title>
    <desc>Created with Sketch.</desc>
    <defs></defs>
    <g id="Page-1" stroke="none" stroke-width="1" fill="none" fill-rule="evenodd">
        <g id="UIA-Landing-Page-2---2" transform="translate(-622.000000, -3827.000000)">
            <g id="Section-6-/-Icons" transform="translate(226.000000, 3478.000000)">
                <g id="Group-16" transform="translate(15.000000, 349.000000)">
                    <g id="Group-23" transform="translate(380.000000, 0.000000)">
                        <rect id="Rectangle-4" fill="#FFFFFF" x="1" y="0" width="180" height="180"></rect>
                        <g id="Group-19" transform="translate(0.000000, 20.000000)">
                            <g id="Group-14" transform="translate(36.036145, 54.316940)">
                                <polygon id="Path-35" fill="#8E85C1" points="27.4698795 81.0928962 112.075992 81.0928962 84.5783133 2.29508197 54.2168675 2.29508197"></polygon>
                                <polygon id="Path-34-Copy" stroke="#000000" stroke-width="6" fill="#FFFFFF" stroke-linecap="round" stroke-linejoin="round" transform="translate(113.493976, 40.546448) scale(-1, 1) translate(-113.493976, -40.546448) " points="86.746988 81.0928962 112.058518 81.0928962 140.240964 0 128.584688 0"></polygon>
                                <polygon id="Path-34" stroke="#000000" stroke-width="6" fill="#FFFFFF" stroke-linecap="round" stroke-linejoin="round" points="-9.09494702e-13 81.0928962 25.3115297 81.0928962 53.4939759 0 41.8376996 0"></polygon>
                                <path d="M70.8433735,79.5628415 L70.8433735,58.9071038" id="Path-36" stroke="#FFFFFF" stroke-width="8" stroke-linecap="round"></path>
                                <path d="M70.8433735,47.431694 L70.8433735,35.1912568" id="Path-36-Copy" stroke="#FFFFFF" stroke-width="8" stroke-linecap="round"></path>
                                <path d="M70.8433735,22.9508197 L70.8433735,15.3005464" id="Path-36-Copy-2" stroke="#FFFFFF" stroke-width="8" stroke-linecap="round"></path>
                                <path d="M70.8433735,3.06010929 L70.8433735,1.53005464" id="Path-36-Copy-3" stroke="#FFFFFF" stroke-width="8" stroke-linecap="round"></path>
                            </g>
                            <g id="Group-12" transform="translate(57.291376, 69.662224) rotate(8.000000) translate(-57.291376, -69.662224) translate(9.291376, 6.162224)">
                                <g id="Group-11" transform="translate(25.109494, 96.564576) rotate(-324.000000) translate(-25.109494, -96.564576) translate(18.603470, 64.433429)" stroke="#000000" stroke-width="6" stroke-linecap="round" stroke-linejoin="round">
                                    <path d="M0,10.7103825 L13.0120482,10.7103825 L13.0120482,57.756271 L13.0120482,57.756271 C13.0120482,61.3494489 10.099202,64.2622951 6.5060241,64.2622951 L6.5060241,64.2622951 L6.5060241,64.2622951 C2.91284621,64.2622951 -8.09471658e-16,61.3494489 -4.4408921e-15,57.756271 L0,10.7103825 Z" id="Rectangle-12" fill="#FFFFFF"></path>
                                    <path d="M5.97606721,0.450112637 L5.97606721,7.33535854" id="Path-31"></path>
                                </g>
                                <circle id="Oval-9" stroke="#000000" stroke-width="6" fill="#FFFFFF" stroke-linecap="round" stroke-linejoin="round" cx="61" cy="35" r="35"></circle>
                                <circle id="Oval-9-Copy" fill="#8E85C1" cx="60.9027032" cy="34.822613" r="27.5"></circle>
                            </g>
                        </g>
                    </g>
                </g>
            </g>
        </g>
    </g>
</svg>