<?xml version="1.0" encoding="UTF-8" standalone="no"?>
<svg width="180px" height="180px" viewBox="0 0 180 180" version="1.1" xmlns="http://www.w3.org/2000/svg" xmlns:xlink="http://www.w3.org/1999/xlink">
    <!-- Generator: Sketch 45.2 (43514) - http://www.bohemiancoding.com/sketch -->
    <title>Group 20</title>
    <desc>Created with Sketch.</desc>
    <defs></defs>
    <g id="Page-1" stroke="none" stroke-width="1" fill="none" fill-rule="evenodd">
        <g id="UIA-Landing-Page-2---2" transform="translate(-625.000000, -3562.000000)">
            <g id="Section-6-/-Icons" transform="translate(226.000000, 3478.000000)">
                <g id="Group-16-Copy" transform="translate(26.000000, 84.000000)">
                    <g id="Group-20" transform="translate(373.000000, 0.000000)">
                        <rect id="Rectangle-4" fill="#FFFFFF" x="0" y="0" width="180" height="180"></rect>
                        <g id="Group-7" transform="translate(5.000000, 25.000000)" stroke-linecap="round" stroke-width="6" stroke="#000000" stroke-linejoin="round">
                            <g id="Group-8">
                                <rect id="Rectangle-5" fill="#FFFFFF" x="0" y="12.6388889" width="133.333333" height="95.6944444" rx="15"></rect>
                                <polyline id="Path-28" points="2.5 36.1111111 58.0050505 57.7777778 80.8017677 57.7777778 133.333333 38.1746032"></polyline>
                                <rect id="Rectangle-6" fill="#8E85C1" x="59.1666667" y="53.2638889" width="18.3333333" height="21.6666667"></rect>
                                <polyline id="Path-27" points="49.1666667 12.5000075 49.1666667 0 85 0 85 12.5000075"></polyline>
                            </g>
                            <g id="like" transform="translate(105.833333, 67.708333)">
                                <polygon id="Path-9" fill="#FFFFFF" points="16.1250434 21.2266556 25.2937776 21.2266556 37.2388896 0.290856274 47.1442748 0.290856274 43.214289 20.7186606 63.9723094 20.7186606 58.5665841 58.8952055 16.1250434 58.8952055"></polygon>
                                <rect id="Rectangle" fill="#8E85C1" x="0.384809097" y="16.0215661" width="13.4953404" height="45.6873504"></rect>
                            </g>
                        </g>
                    </g>
                </g>
            </g>
        </g>
    </g>
</svg>