<svg width="180" height="180" xmlns="http://www.w3.org/2000/svg"><title>Group 23</title><g id="Page-1" fill="none" fill-rule="evenodd"><g id="UIA-Landing-Page-2---2" transform="translate(-622 -3827)"><g id="Section-6-/-Icons" transform="translate(226 3478)"><g id="Group-16" transform="translate(15 349)"><g id="Group-23" transform="translate(380)"><path id="Rectangle-4" fill="#FFF" d="M1 0h180v180H1z"/><g id="Group-19" transform="translate(0 20)"><g id="Group-14" transform="translate(36.036 54.317)"><path id="Path-35" fill="#8E85C1" d="M27.47 81.093h84.606L84.578 2.295H54.217z"/><path id="Path-34-Copy" stroke="#000" stroke-width="6" fill="#FFF" stroke-linecap="round" stroke-linejoin="round" d="M140.241 81.093h-25.312L86.747 0h11.656z"/><path id="Path-34" stroke="#000" stroke-width="6" fill="#FFF" stroke-linecap="round" stroke-linejoin="round" d="M0 81.093h25.312L53.494 0H41.838z"/><path d="M70.843 79.563V58.907" id="Path-36" stroke="#FFF" stroke-width="8" stroke-linecap="round"/><path d="M70.843 47.432v-12.24" id="Path-36-Copy" stroke="#FFF" stroke-width="8" stroke-linecap="round"/><path d="M70.843 22.95V15.3" id="Path-36-Copy-2" stroke="#FFF" stroke-width="8" stroke-linecap="round"/><path d="M70.843 3.06V1.53" id="Path-36-Copy-3" stroke="#FFF" stroke-width="8" stroke-linecap="round"/></g><g id="Group-12" transform="rotate(8 8.584 133.018)"><g id="Group-11" transform="rotate(36 -83.345 92.976)" stroke="#000" stroke-width="6" stroke-linecap="round" stroke-linejoin="round"><path d="M0 10.71h13.012v47.046a6.506 6.506 0 1 1-13.012 0V10.71z" id="Rectangle-12" fill="#FFF"/><path d="M5.976.45v6.885" id="Path-31"/></g><circle id="Oval-9" stroke="#000" stroke-width="6" fill="#FFF" stroke-linecap="round" stroke-linejoin="round" cx="61" cy="35" r="35"/><circle id="Oval-9-Copy" fill="#8E85C1" cx="60.903" cy="34.823" r="27.5"/></g></g></g></g></g></g></g></svg>