<svg width="180" height="180" xmlns="http://www.w3.org/2000/svg"><title>Group 24</title><g id="Page-1" fill="none" fill-rule="evenodd"><g id="UIA-Landing-Page-2---2" transform="translate(-1018 -3831)" fill="#FFF"><g id="Section-6-/-Icons" transform="translate(226 3478)"><g id="Group-16" transform="translate(15 349)"><g id="Group-24" transform="translate(777 4)"><path id="Rectangle-4" d="M0 0h180v180H0z"/><g id="Group-15" transform="translate(5 37)" stroke-linecap="round" stroke-linejoin="round"><path d="M32.152 34.931c-9.85 0-17.836-7.82-17.836-17.465C14.316 7.82 22.3 0 32.152 0c9.85 0 17.836 7.82 17.836 17.466S42.002 34.93 32.152 34.93zM0 74.027s6.85-38.821 32.254-38.821c25.403 0 32.167 38.82 32.167 38.82H0z" id="Combined-Shape" stroke="#000" stroke-width="6"/><path d="M137.73 34.931c-9.85 0-17.835-7.82-17.835-17.465C119.895 7.82 127.88 0 137.73 0c9.85 0 17.836 7.82 17.836 17.466S147.58 34.93 137.73 34.93zm-32.15 39.096s6.85-38.821 32.254-38.821c25.403 0 32.167 38.82 32.167 38.82H105.58z" id="Combined-Shape-Copy-3" stroke="#000" stroke-width="6"/><path d="M85.821 57.496c-12.313 0-22.295-9.752-22.295-21.78 0-12.03 9.982-21.782 22.295-21.782 12.313 0 22.295 9.752 22.295 21.781 0 12.03-9.982 21.781-22.295 21.781zm-40.19 48.754s8.564-48.412 40.318-48.412c31.753 0 40.209 48.412 40.209 48.412H45.632z" id="Combined-Shape-Copy-2" stroke="#8E85C1" stroke-width="8"/></g></g></g></g></g></g></svg>